<svg width="32" height="32" viewBox="0 0 32 32" fill="none" xmlns="http://www.w3.org/2000/svg">
<path d="M4 12.5333C4 9.54639 4 8.05291 4.5813 6.91205C5.09262 5.90852 5.90852 5.09262 6.91205 4.5813C8.05291 4 9.54639 4 12.5333 4H19.4667C22.4536 4 23.9471 4 25.0879 4.5813C26.0915 5.09262 26.9074 5.90852 27.4187 6.91205C28 8.05291 28 9.54639 28 12.5333V19.4667C28 22.4536 28 23.9471 27.4187 25.0879C26.9074 26.0915 26.0915 26.9074 25.0879 27.4187C23.9471 28 22.4536 28 19.4667 28H12.5333C9.54639 28 8.05291 28 6.91205 27.4187C5.90852 26.9074 5.09262 26.0915 4.5813 25.0879C4 23.9471 4 22.4536 4 19.4667V12.5333Z" fill="#D5B5FF"/>
<path fill-rule="evenodd" clip-rule="evenodd" d="M18.2761 11.0572C18.7968 11.5779 18.7968 12.4221 18.2761 12.9428L15.219 16L18.2761 19.0572C18.7968 19.5779 18.7968 20.4221 18.2761 20.9428C17.7554 21.4635 16.9112 21.4635 16.3905 20.9428L12.3905 16.9428C11.8698 16.4221 11.8698 15.5779 12.3905 15.0572L16.3905 11.0572C16.9112 10.5365 17.7554 10.5365 18.2761 11.0572Z" fill="#7000FF"/>
</svg>
