<svg width="20" height="24" viewBox="0 0 20 24" fill="none" xmlns="http://www.w3.org/2000/svg">
<path d="M9.10423 6.94766C9.13803 6.50301 9.52113 6.12506 9.99437 6.12506C10.4789 6.12506 10.862 6.50301 10.8958 6.94766V0.867068C10.8958 0.400185 10.4789 0 9.99437 0C9.50986 0 9.10423 0.400185 9.10423 0.867068V6.94766ZM10.9296 6.23622V12.7392L10.862 14.3177L11.5606 13.5841L13.2732 11.7943C13.431 11.6054 13.6789 11.5164 13.9042 11.5164C14.3887 11.5164 14.7606 11.861 14.7606 12.3279C14.7606 12.5725 14.6592 12.7615 14.4789 12.9393L10.6704 16.5632C10.4451 16.7855 10.2423 16.8634 10.0056 16.8634C9.75775 16.8634 9.55493 16.7855 9.32958 16.5632L5.52113 12.9393C5.34085 12.7615 5.23944 12.5725 5.23944 12.3279C5.23944 11.861 5.6 11.5164 6.08451 11.5164C6.30986 11.5164 6.56901 11.6054 6.72676 11.7943L8.42817 13.5841L9.1493 14.3289L9.07042 12.7392V6.23622H3.53803C1.1831 6.23622 0 7.39231 0 9.68226V20.554C0 22.8439 1.1831 24 3.53803 24H16.462C18.8169 24 20 22.8439 20 20.554V9.68226C20 7.39231 18.8169 6.23622 16.462 6.23622H10.9296Z" fill="#b5b1bf"/>
</svg>
