<svg width="32" height="14" viewBox="0 0 32 14" fill="none" xmlns="http://www.w3.org/2000/svg">
<path d="M5.84512 1.713C5.46912 2.161 4.87012 2.516 4.27212 2.464C4.19312 1.86 4.49112 1.213 4.83512 0.812C5.21012 0.355 5.86612 0.027 6.39812 0C6.46112 0.631 6.21512 1.251 5.84612 1.713H5.84512ZM6.39212 2.583C5.52312 2.53 4.77712 3.082 4.36512 3.082C3.94412 3.082 3.31312 2.609 2.62612 2.625C1.73512 2.636 0.902118 3.145 0.449118 3.964C-0.493882 5.593 0.204118 8.005 1.11012 9.333C1.55312 9.989 2.08312 10.708 2.78212 10.688C3.44312 10.661 3.70912 10.251 4.50612 10.251C5.31312 10.251 5.54212 10.688 6.24612 10.672C6.96912 10.661 7.42712 10.016 7.87012 9.36C8.37512 8.615 8.58312 7.885 8.59412 7.849C8.58312 7.833 7.19312 7.297 7.18312 5.682C7.17212 4.327 8.27612 3.682 8.32312 3.645C7.70312 2.708 6.72412 2.609 6.39112 2.584L6.39212 2.583ZM11.4081 0.749001V10.604H12.9231V7.235H15.0181C16.9291 7.235 18.2731 5.907 18.2731 3.99C18.2731 2.069 16.9561 0.75 15.0701 0.75L11.4081 0.749001ZM12.9231 2.041H14.6681C15.9801 2.041 16.7311 2.749 16.7311 3.994C16.7311 5.239 15.9801 5.953 14.6581 5.953H12.9231V2.041ZM21.0321 10.677C21.9851 10.677 22.8651 10.193 23.2671 9.421H23.2991V10.604H24.6991V5.697C24.6991 4.281 23.5751 3.36 21.8401 3.36C20.2361 3.36 19.0481 4.292 19.0071 5.568H20.3661C20.4811 4.959 21.0331 4.563 21.7991 4.563C22.7261 4.563 23.2421 5 23.2421 5.803V6.344L21.3571 6.459C19.5961 6.568 18.6481 7.292 18.6481 8.558C18.6481 9.834 19.6281 10.678 21.0331 10.678L21.0321 10.677ZM21.4441 9.51C20.6361 9.51 20.1211 9.119 20.1211 8.521C20.1211 7.901 20.6161 7.536 21.5581 7.478L23.2411 7.374V7.931C23.2411 8.854 22.4651 9.51 21.4381 9.51H21.4441ZM26.5691 13.286C28.0421 13.286 28.7361 12.713 29.3401 10.989L31.9961 3.458H30.4601L28.6791 9.275H28.6471L26.8661 3.458H25.2831L27.8461 10.63L27.7101 11.067C27.4751 11.802 27.1011 12.087 26.4341 12.087C26.3141 12.087 26.0851 12.072 25.9911 12.062V13.245C26.0791 13.27 26.4551 13.281 26.5641 13.281L26.5691 13.286Z" fill="#4E00F2"/>
</svg>
