<svg width="22" height="22" viewBox="0 0 22 22" fill="none" xmlns="http://www.w3.org/2000/svg">
<path d="M8.25 18.3333H13.75C13.75 19.852 12.5188 21.0833 11 21.0833C9.48122 21.0833 8.25 19.852 8.25 18.3333Z" fill="white"/>
<path d="M11.9207 2.75H10.0793L9.13848 3.08845C6.95567 3.87367 5.5002 5.94402 5.5002 8.26378V11.3074C5.5002 11.98 5.18395 12.6135 4.64636 13.0177C2.7696 14.4288 3.76757 17.4167 6.11563 17.4167H15.8847C18.2327 17.4167 19.2307 14.4288 17.354 13.0177C16.8164 12.6135 16.5002 11.98 16.5002 11.3075V8.26388C16.5002 5.94407 15.0447 3.87367 12.8618 3.08849L11.9207 2.75Z" fill="white" fill-opacity="0.4"/>
<path d="M10.083 1.83341C10.083 1.32715 10.4934 0.916748 10.9997 0.916748C11.5059 0.916748 11.9163 1.32715 11.9163 1.83341V2.75008H10.083V1.83341Z" fill="white"/>
</svg>
