<svg width="18" height="18" viewBox="0 0 18 18" fill="none" xmlns="http://www.w3.org/2000/svg">
<path d="M0.5 13.9817V6.54444C0.5 4.42869 0.5 3.37081 0.911753 2.5627C1.27394 1.85187 1.85187 1.27394 2.5627 0.911753C3.37081 0.5 4.42869 0.5 6.54444 0.5H11.4556C13.5713 0.5 14.6292 0.5 15.4373 0.911753C16.1481 1.27394 16.7261 1.85187 17.0882 2.5627C17.5 3.37081 17.5 4.42869 17.5 6.54444V7.67778C17.5 9.79353 17.5 10.8514 17.0882 11.6595C16.7261 12.3704 16.1481 12.9483 15.4373 13.3105C14.6292 13.7222 13.5713 13.7222 11.4556 13.7222H7.45032C6.97694 13.7222 6.74024 13.7222 6.51814 13.7768C6.32125 13.8252 6.13344 13.905 5.96191 14.0131C5.76841 14.135 5.60407 14.3053 5.27538 14.646L4.39788 15.5555C3.17948 16.8183 2.57028 17.4497 2.0455 17.4976C1.59034 17.5392 1.14308 17.3586 0.844381 17.0127C0.5 16.6138 0.5 15.7364 0.5 13.9817Z" fill="white" fill-opacity="0.4"/>
<path d="M5.22233 8.52816C6.00473 8.52816 6.639 7.89389 6.639 7.11149C6.639 6.32909 6.00473 5.69482 5.22233 5.69482C4.43993 5.69482 3.80566 6.32909 3.80566 7.11149C3.80566 7.89389 4.43993 8.52816 5.22233 8.52816Z" fill="white"/>
<path d="M12.778 8.52816C13.5604 8.52816 14.1947 7.89389 14.1947 7.11149C14.1947 6.32909 13.5604 5.69482 12.778 5.69482C11.9956 5.69482 11.3613 6.32909 11.3613 7.11149C11.3613 7.89389 11.9956 8.52816 12.778 8.52816Z" fill="white"/>
<path d="M9.00065 8.52816C9.78305 8.52816 10.4173 7.89389 10.4173 7.11149C10.4173 6.32909 9.78305 5.69482 9.00065 5.69482C8.21825 5.69482 7.58398 6.32909 7.58398 7.11149C7.58398 7.89389 8.21825 8.52816 9.00065 8.52816Z" fill="white"/>
</svg>
