<svg width="34" height="15" viewBox="0 0 34 15" fill="none" xmlns="http://www.w3.org/2000/svg">
<path d="M5.61642 5.3379V7.5132H8.64986C8.58868 7.85997 8.4577 8.19094 8.26473 8.48632C8.07177 8.7817 7.82079 9.03543 7.52679 9.23234C7.01998 9.57775 6.37292 9.77445 5.61429 9.77445C4.14804 9.77445 2.90864 8.77724 2.46398 7.44253C2.2313 6.74033 2.2313 5.98262 2.46398 5.28042C2.90864 3.9378 4.14804 2.9406 5.61429 2.9406C6.01173 2.93325 6.40668 3.00443 6.77614 3.15001C7.14561 3.29559 7.48222 3.51265 7.76639 3.78857L9.37501 2.17384C8.36188 1.21833 7.01385 0.691782 5.61642 0.705714C4.57104 0.709696 3.54759 1.00368 2.66162 1.55449C1.77564 2.10529 1.06243 2.89097 0.602482 3.82284C0.206296 4.61037 5.34058e-05 5.47858 5.34058e-05 6.35884C5.34058e-05 7.2391 0.206296 8.10731 0.602482 8.89484V8.90275C1.06255 9.83407 1.77596 10.619 2.66203 11.1689C3.54809 11.7187 4.57147 12.0115 5.61642 12.0141C7.12889 12.0141 8.40814 11.5115 9.33517 10.6477C10.3977 9.66634 11.0038 8.21404 11.0038 6.48646C11.0044 6.10173 10.9733 5.7176 10.9109 5.3379H5.61642ZM26.3038 5.12696C25.7657 4.63232 25.0325 4.3813 24.105 4.3813C22.9118 4.3813 22.015 4.82111 21.4222 5.69228L22.5298 6.39153C22.9353 5.79388 23.4889 5.49505 24.1905 5.49505C24.6372 5.49613 25.0677 5.66124 25.3991 5.95859C25.5606 6.09778 25.6901 6.26976 25.7789 6.46289C25.8677 6.65603 25.9138 6.86583 25.9139 7.07814V7.3687C25.4305 7.10134 24.8222 6.96001 24.0736 6.96001C23.2003 6.96001 22.4985 7.16462 21.9757 7.5807C21.453 7.99677 21.1884 8.54626 21.1884 9.24499C21.1802 9.55727 21.2425 9.8674 21.3706 10.1527C21.4988 10.438 21.6895 10.6913 21.929 10.894C22.4204 11.3338 23.0446 11.5537 23.7772 11.5537C24.6426 11.5537 25.329 11.1687 25.8491 10.3993H25.9022V11.3338H27.1034V7.18361C27.1071 6.31085 26.842 5.6195 26.3038 5.12696ZM25.2822 9.83614C25.098 10.0222 24.8783 10.1701 24.636 10.2711C24.3937 10.3721 24.1335 10.4243 23.8707 10.4247C23.5174 10.4305 23.173 10.314 22.8969 10.0951C22.7681 9.99922 22.6636 9.87474 22.5919 9.73161C22.5202 9.58848 22.4833 9.43067 22.4841 9.27083C22.4841 8.90169 22.6552 8.59531 22.9909 8.3522C23.3267 8.10909 23.7629 7.98306 24.2697 7.98306C24.9688 7.97462 25.516 8.13282 25.9059 8.44607C25.9059 8.98027 25.6955 9.44327 25.2822 9.83614ZM20.3071 2.34786C20.0252 2.0681 19.6892 1.84776 19.3194 1.70005C18.9496 1.55234 18.5535 1.48032 18.155 1.48829H14.8256V11.3359H16.081V7.34708H18.1529C19.0029 7.34708 19.72 7.06443 20.305 6.50702C20.3517 6.46009 20.3985 6.41263 20.4457 6.3657C20.9576 5.81113 21.2299 5.07932 21.204 4.3276C21.178 3.57587 20.856 2.86426 20.3071 2.34575V2.34786ZM19.4263 5.62952C19.268 5.79721 19.0756 5.92947 18.8618 6.01749C18.6479 6.10552 18.4177 6.14728 18.1863 6.13999H16.081V2.70118H18.1863C18.6356 2.69957 19.0673 2.87456 19.3869 3.18792C19.7122 3.50943 19.8983 3.94418 19.9056 4.39974C19.9129 4.85531 19.741 5.29575 19.4263 5.62741V5.62952ZM32.6353 4.59962L30.6941 9.43536H30.6702L28.6822 4.59962H27.3174L30.0688 10.904L28.5096 14.2959H29.8032L34 4.59962H32.6353Z" fill="#4E00F2"/>
</svg>
