<svg width="26" height="26" viewBox="0 0 26 26" fill="none" xmlns="http://www.w3.org/2000/svg">
<g clip-path="url(#clip0)">
<path d="M4.80428 12.2955L1.36266 6.4274C0.0524906 4.19349 2.37454 1.59148 4.74255 2.64L23.8873 11.1169C25.4955 11.829 25.4955 14.1111 23.8873 14.8232L4.74258 23.3001C2.37456 24.3486 0.052517 21.7466 1.36269 19.5127L4.80428 13.6446C5.04856 13.2281 5.04856 12.7121 4.80428 12.2955Z" fill="#D5B5FF"/>
<path fill-rule="evenodd" clip-rule="evenodd" d="M4.98805 12.9702L25.094 12.9702C25.094 13.7187 24.6919 14.4673 23.8879 14.8233L4.74314 23.3002C2.37511 24.3487 0.053069 21.7467 1.36324 19.5128L4.80483 13.6447C4.92697 13.4365 4.98804 13.2033 4.98805 12.9702Z" fill="#7000FF"/>
</g>
<defs>
<clipPath id="clip0">
<rect width="26" height="26" fill="white"/>
</clipPath>
</defs>
</svg>
