<svg width="98" height="98" viewBox="0 0 98 98" fill="none" xmlns="http://www.w3.org/2000/svg">
<path d="M49.0231 98C76.2171 98 98 76.1811 98 49C98 21.8189 76.2171 0 49.0231 0C45.4158 0 43.0571 2.12642 43.0571 5.5934V20.9406C43.0571 23.9453 45.1845 26.2104 48.1907 26.2104C51.1505 26.2104 53.278 23.9453 53.278 20.9406V12.5274C71.4998 14.7 85.4205 30.1858 85.4205 49C85.4205 69.0623 69.2799 85.4264 49.0231 85.4264C28.7664 85.4264 12.5795 69.0623 12.5795 49C12.6258 40.9104 15.3544 33.2368 19.933 27.1349C22.3379 23.6217 22.9391 20.5245 20.0717 17.8434C17.3431 15.2085 12.9495 15.5783 10.1746 19.4151C3.88485 27.5972 0 37.9057 0 49C0 76.1811 21.7829 98 49.0231 98ZM56.4691 57.1358C60.6314 52.8368 59.7527 46.7811 54.8967 43.6377L33.2062 29.2151C29.5989 26.8575 26.3152 30.1858 28.6739 33.7915L43.0571 55.4255C46.2482 60.2792 52.2605 61.2038 56.4691 57.1358Z" fill="#4E00F2"/>
</svg>
