<svg width="18" height="19" viewBox="0 0 18 19" fill="none" xmlns="http://www.w3.org/2000/svg">
<path d="M6.49553 11.2209C6.49553 10.5326 6.06438 10.0974 5.38573 10.0974C5.05838 10.0974 4.81885 10.2082 4.62723 10.3664L0.898631 13.5234C0.395629 13.9506 0.411598 14.6627 0.898631 15.082L4.62723 18.2231C4.81885 18.3893 5.05838 18.5001 5.38573 18.5001C6.06438 18.5001 6.49553 18.0649 6.49553 17.3686V15.9049H12.2521C15.845 15.9049 18.0007 14.1089 18.0007 11.126V10.1845C18.0007 9.33787 17.2981 8.6416 16.4438 8.6416C15.5895 8.6416 14.9028 9.33787 14.9028 10.1845V10.6434C14.9028 12.0834 13.9607 12.9141 12.3559 12.9141H6.49553V11.2209Z" fill="#7000FF"/>
<path d="M1.54893 10.3822C0.702606 10.3822 0 9.69385 0 8.84725V7.8978C0 4.91494 2.15572 3.1189 5.74061 3.1189H11.5052V1.62352C11.5052 0.935165 11.9363 0.5 12.615 0.5C12.9423 0.5 13.1739 0.610769 13.3735 0.769011L17.0941 3.91802C17.5891 4.32945 17.5971 5.04154 17.0941 5.46879L13.3735 8.62571C13.1739 8.79187 12.9423 8.90264 12.615 8.90264C11.9363 8.90264 11.5052 8.45956 11.5052 7.77121V6.11758H5.6448C4.032 6.11758 3.09785 6.94044 3.09785 8.38044V8.84725C3.09785 9.69385 2.40323 10.3822 1.54893 10.3822Z" fill="#D5B5FF"/>
</svg>
