<svg width="22" height="18" viewBox="0 0 22 18" fill="none" xmlns="http://www.w3.org/2000/svg">
<path d="M3.82812 6.875C3.82812 4.66406 5 3.50781 7.22656 3.50781H17.7422V3.3125C17.7422 1.70312 16.9219 0.890625 15.2891 0.890625H3.44531C1.80469 0.890625 0.992188 1.70312 0.992188 3.3125V11.5391C0.992188 13.1484 1.80469 13.9531 3.44531 13.9531H3.82812V6.875ZM7.34375 17.7188H19.1953C20.8203 17.7188 21.6484 16.9062 21.6484 15.2969V6.99219C21.6484 5.39062 20.8203 4.57812 19.1953 4.57812H7.34375C5.71094 4.57812 4.89062 5.38281 4.89062 6.99219V15.2969C4.89062 16.9062 5.71094 17.7188 7.34375 17.7188ZM10.3438 11.0625C9.34375 11.0625 8.53125 10.25 8.53125 9.25C8.53125 8.25781 9.34375 7.4375 10.3438 7.4375C11.3359 7.4375 12.1484 8.25781 12.1484 9.25C12.1484 10.25 11.3359 11.0625 10.3438 11.0625ZM7.25781 16.4609C6.55469 16.4609 6.14844 16.0625 6.14844 15.3516V14.7109L7.51562 13.4688C8.20312 12.8438 8.60938 12.4141 9.15625 12.4141C9.71875 12.4141 10.1641 12.8594 10.8828 13.4766L11.6172 14.1328L14.1719 11.8281C15.0312 11.0547 15.5938 10.5312 16.2734 10.5312C16.9688 10.5312 17.5547 11.0391 18.3906 11.8281L20.3906 13.7266V15.3516C20.3906 16.0625 19.9766 16.4609 19.2812 16.4609H7.25781Z" fill="white"/>
</svg>
