<svg width="24" height="24" viewBox="0 0 24 24" fill="none" xmlns="http://www.w3.org/2000/svg">
<path d="M11.9945 24C18.6085 24 24 18.6169 24 12C24 5.38308 18.6085 0 11.9945 0C5.38063 0 0 5.38308 0 12C0 18.6169 5.38063 24 11.9945 24ZM10.5648 18.2129C9.95362 18.2129 9.45157 17.9072 9.10232 17.5141L5.96999 13.9545C5.62074 13.5614 5.5116 13.2448 5.5116 12.8298C5.5116 11.9454 6.25375 11.2466 7.12688 11.2466C7.61801 11.2466 7.97817 11.4759 8.30559 11.8035L10.5648 14.3258L14.8213 7.66515C15.2142 7.05369 15.6508 6.74795 16.251 6.74795C17.1132 6.74795 17.8772 7.41401 17.8772 8.27661C17.8772 8.59327 17.7899 8.94267 17.5607 9.29208L12.06 17.4049C11.7217 17.8963 11.1542 18.2129 10.5648 18.2129Z" fill="#33C74C"/>
</svg>
