<svg width="16" height="20" viewBox="0 0 16 20" fill="none" xmlns="http://www.w3.org/2000/svg">
<path d="M16 12C16 16.4183 12.4183 20 8 20C3.58172 20 0 16.4183 0 12C0 7.58172 3.58172 4 8 4C12.4183 4 16 7.58172 16 12Z" fill="#D5B5FF"/>
<path d="M7 9C7 8.44772 7.44772 8 8 8V8C8.55228 8 9 8.44772 9 9V12C9 12.5523 8.55228 13 8 13V13C7.44772 13 7 12.5523 7 12V9Z" fill="#7000FF"/>
<path fill-rule="evenodd" clip-rule="evenodd" d="M7 0C6.44772 0 6 0.447715 6 1C6 1.55228 6.44772 2 7 2H9C9.55228 2 10 1.55228 10 1C10 0.447715 9.55228 0 9 0H7ZM14.6 1.95C14.1582 1.61863 13.5314 1.70817 13.2 2.15C12.8686 2.59183 12.9582 3.21863 13.4 3.55L14.4 4.3C14.8418 4.63137 15.4686 4.54183 15.8 4.1C16.1314 3.65817 16.0418 3.03137 15.6 2.7L14.6 1.95Z" fill="#7000FF"/>
</svg>
