<svg version="1" xmlns="http://www.w3.org/2000/svg" width="933.333" height="933.333" viewBox="0 0 700.000000 700.000000"><path d="M462 44.4c-9.6 2.7-16.9 8.1-21.4 15.9-4.5 7.7-4.9 11.5-5.2 41.7-.1 15.7-.2 28.9-.3 29.5-.1.7-35.6 1-104.4 1-93.7 0-118.4.4-129.7 2-7.7 1-18.6 2.7-20.5 3.2-1.1.2-3.3.7-5 .9-7.6 1.3-27.5 7.4-36 10.9-42.7 17.9-71.4 46.2-86.1 85.1-1.4 3.8-2.7 7.6-2.9 8.4-.2.8-1.3 5.1-2.3 9.5-1.1 4.4-2.3 9.8-2.6 12-.4 2.2-.9 5.6-1.2 7.5-.4 1.9-.8 16.5-1 32.5-.4 27.1-.3 29.5 1.6 36.5 4.7 16.8 16.6 29.7 33 35.7 6.4 2.4 9 2.8 18 2.8 6.1 0 12.2-.6 14.5-1.4 4.9-1.6 15.2-6.7 17-8.4 7.7-7 11.8-11.8 14.3-16.5 5.6-10.7 6.4-14.4 6.8-31.7.5-26 2.2-35.2 9.1-48.8 4.5-9.1 16-20.8 25.6-26.2 7.6-4.2 21.5-9 29.2-10 2.8-.3 6.6-.9 8.5-1.2 3.6-.6 210.3-1.1 213-.5 1.3.3 1.5 4.4 1.5 30-.1 16.3.3 31.9.7 34.7 1.3 7.7 6.3 17 11.4 21.2 7 5.9 15 8.6 25.4 8.6 13.2.1 19.4-2.9 34.5-16.2 2.2-2 6.5-5.6 9.4-8.1 3-2.5 5.9-5 6.5-5.5.6-.6 3.8-3.3 7.1-6 7.8-6.6 27.3-23.1 30.5-25.9 1.4-1.2 6.8-5.7 12-10.1 5.2-4.4 9.7-8.2 10-8.5.5-.5 11-9.4 15.5-13.2 1.1-.9 3.1-2.6 4.5-3.8 1.4-1.2 4.7-4 7.5-6.3 17-14.3 21-18.4 24.5-25.1 3-6 3.4-7.6 3.4-14.5 0-13.2-4.7-20.6-22.5-35.1-4.9-4-24.9-20.9-29.4-24.9-1.6-1.4-10.2-8.7-19-16.1-8.8-7.3-19.2-16.1-23.1-19.4-3.8-3.4-13.7-11.7-21.8-18.6-8.2-6.9-15.8-13.3-17-14.4-6.2-5.4-13-10-17.8-11.8-6.4-2.5-19.2-3.2-25.8-1.4zM589 322.9c-11.8 3.9-20.2 9.8-27.4 19.5-7.5 9.9-9.7 17.9-10.1 37.1-.6 24-1.4 29.1-6.2 42.5-3.3 9.2-12 20.2-22.7 28.8-7.5 6.1-25.3 12.4-41.6 14.8-4.3.7-213.4 1.3-215.5.7-.6-.2-1-11.4-.9-31.1 0-16.9-.4-33-.9-35.7-1-6-4.8-13.9-8.5-17.9-10.7-11.3-31.6-14.5-46.3-7-3.9 1.9-14.8 9.9-16.9 12.3-.3.4-3.4 3.1-7 6.1-3.6 3-7 5.9-7.6 6.5-.6.5-3.3 2.8-6 5.1-24.4 20.5-53.7 45.3-65.3 55.2-13 11.1-13.8 11.8-24.6 20.8-5.5 4.6-11.3 9.9-12.8 11.9-6.7 8.5-9 19-6.3 29.3 2.7 10.5 5.3 13.7 25.1 30.2 6.1 5 12.1 10.1 13.5 11.3 1.4 1.2 5 4.2 8 6.7s5.7 4.7 6 5c.6.6 12.3 10.6 15.5 13.2 2.2 1.8 17.3 14.6 22.1 18.6 16.3 14.1 51.3 43.1 53.8 44.6 5.3 3.3 14.7 5.7 21.1 5.5 17.8-.7 29.5-8.8 35-24.5 1.5-4.2 1.8-9.3 2.1-33.9.1-16 .3-29.2.3-29.5.1-.3 46.8-.6 103.9-.6 57 0 108.7-.4 114.7-.8 15.1-.9 30.8-3.2 45.5-6.7 22-5.1 45.6-14.9 62-25.7 11.3-7.5 11.9-8 24-20.2 19.7-19.8 32.1-43.1 38.1-71.9 3-14.6 3.4-20.6 3.4-51.1 0-27.6-.1-28.7-2.4-35-5.8-15.9-17.3-27.5-32.8-33.2-8-3-24.5-3.4-32.3-.9z"/></svg>