<svg width="24" height="25" viewBox="0 0 24 25" fill="none" xmlns="http://www.w3.org/2000/svg">
<path d="M12.0057 24.0113C18.6654 24.0113 24 18.6654 24 12.0057C24 5.34592 18.6654 0 12.0057 0C11.1222 0 10.5446 0.521 10.5446 1.37046V5.13072C10.5446 5.86692 11.0656 6.4219 11.8018 6.4219C12.5267 6.4219 13.0477 5.86692 13.0477 5.13072V3.06937C17.5101 3.6017 20.9193 7.39594 20.9193 12.0057C20.9193 16.9212 16.9665 20.9306 12.0057 20.9306C7.04483 20.9306 3.0807 16.9212 3.0807 12.0057C3.09202 10.0236 3.76026 8.14346 4.88155 6.64842C5.4705 5.78764 5.61774 5.02879 4.91553 4.37187C4.24729 3.72629 3.17131 3.81689 2.49174 4.75696C0.951392 6.76168 0 9.2874 0 12.0057C0 18.6654 5.33459 24.0113 12.0057 24.0113ZM13.8292 13.9991C14.8485 12.9457 14.6333 11.462 13.4441 10.6918L8.13214 7.15809C7.2487 6.58046 6.44455 7.39594 7.02218 8.27938L10.5446 13.58C11.3261 14.7692 12.7985 14.9958 13.8292 13.9991Z" fill="white"/>
</svg>
