<svg width="46" height="46" viewBox="0 0 46 46" fill="none" xmlns="http://www.w3.org/2000/svg">
<rect width="46" height="46" rx="23" fill="#7000ff"/>
<path d="M12.0479 22.2059C12.0479 23.2361 12.9029 24.0738 13.9328 24.0738C14.9724 24.0738 15.8177 23.2361 15.8177 22.2059V21.6378C15.8177 19.8854 16.9545 18.8841 18.9172 18.8841H26.0489V20.8964C26.0489 21.7341 26.5735 22.2733 27.3994 22.2733C27.7978 22.2733 28.0795 22.1385 28.3224 21.9363L32.8502 18.0945C33.4623 17.5746 33.4526 16.708 32.8502 16.2073L28.3224 12.3752C28.0795 12.1827 27.7978 12.0479 27.3994 12.0479C26.5735 12.0479 26.0489 12.5774 26.0489 13.4151V15.2349H19.0338C14.6712 15.2349 12.0479 17.4205 12.0479 21.0505V22.2059ZM19.9516 25.0944C19.9516 24.2567 19.4269 23.7272 18.6011 23.7272C18.2027 23.7272 17.9112 23.862 17.678 24.0545L13.1406 27.8963C12.5285 28.4162 12.5479 29.2828 13.1406 29.7931L17.678 33.6156C17.9112 33.8178 18.2027 33.9526 18.6011 33.9526C19.4269 33.9526 19.9516 33.423 19.9516 32.5757V30.7945H26.957C31.3292 30.7945 33.9526 28.6088 33.9526 24.9789V23.8331C33.9526 22.8028 33.0976 21.9555 32.058 21.9555C31.0183 21.9555 30.1827 22.8028 30.1827 23.8331V24.3915C30.1827 26.1439 29.0362 27.1549 27.0833 27.1549H19.9516V25.0944Z" fill="white"/>
</svg>
