<svg width="90" height="21" viewBox="0 0 90 21" fill="none" xmlns="http://www.w3.org/2000/svg">
<path d="M24.4553 15.296C26.4508 15.296 27.8309 14.526 28.6142 13.0696H28.7261V15.0548H33.0157V5.36991C33.0157 2.35499 30.2834 0.396973 26.6373 0.396973C22.7861 0.396973 20.6413 2.5498 20.2776 5.14727L24.4832 5.2957C24.6791 4.38658 25.4344 3.82998 26.6373 3.82998C27.7563 3.82998 28.465 4.36803 28.465 5.32352V5.36991C28.465 6.24192 27.5139 6.42745 25.0707 6.64081C22.1706 6.88201 19.7461 7.94883 19.7461 11.1029C19.7461 13.923 21.7137 15.296 24.4553 15.296ZM25.8633 12.3274C24.8096 12.3274 24.0636 11.8265 24.0636 10.8803C24.0636 9.96187 24.791 9.40527 26.0871 9.21046C26.9357 9.08986 27.9801 8.90433 28.493 8.6353V9.9897C28.493 11.3812 27.3181 12.3274 25.8633 12.3274Z" fill="#160242"/>
<path d="M34.7624 20.3981H39.3224V12.7449H39.4156C39.9938 14.0622 41.2806 15.2589 43.4441 15.2589C46.6146 15.2589 49.1697 12.7913 49.1697 7.93955C49.1697 2.91159 46.4654 0.620245 43.472 0.620245C41.206 0.620245 39.9658 1.93753 39.4156 3.24555H39.2758V0.805779L34.7624 0.805779V20.3981ZM39.2291 7.93027C39.2291 5.60183 40.1989 4.16394 41.8681 4.16394C43.556 4.16394 44.4885 5.63893 44.4885 7.93027C44.4885 10.2309 43.556 11.7244 41.8681 11.7244C40.1989 11.7244 39.2291 10.2402 39.2291 7.93027Z" fill="#160242"/>
<path d="M50.5685 15.0548H55.1285V10.3237H56.4526L59.5952 15.0548H64.9385L60.0708 7.93955L64.8918 0.805779L59.6138 0.805779L56.1356 6.11204L55.1285 6.11204V0.805779L50.5685 0.805779V15.0548Z" fill="#160242"/>
<path d="M71.0588 15.3238C74.8168 15.3238 77.2879 13.5148 77.8101 10.7133L73.6232 10.5927C73.2688 11.5389 72.3363 12.0491 71.1427 12.0491C69.3896 12.0491 68.3079 10.8895 68.3079 9.14552V9.02492L77.8568 9.02492V7.89317C77.8568 3.19916 74.9846 0.620245 70.9189 0.620245C66.5921 0.620245 63.8132 3.57023 63.8132 7.98593C63.8132 12.5501 66.5548 15.3238 71.0588 15.3238ZM68.3079 6.39034C68.3732 4.97101 69.5015 3.89492 71.0122 3.89492C72.5135 3.89492 73.5952 4.9339 73.6139 6.39034L68.3079 6.39034Z" fill="#160242"/>
<path d="M78.792 4.27526L81.5951 4.27526V15.1682H85.7977V4.27526H90.0003V0.805779L76.6635 0.805779L78.792 4.27526Z" fill="#160242"/>
<path d="M9.44616 9.51189L6.07311 0.760742L0.802734 0.760742L0.802734 14.9434H5.10425L5.10425 7.14287L7.97045 14.9434H10.8877L14.0417 6.65486V14.9434L18.2875 14.9434L18.2875 0.760742L12.98 0.760742L9.44616 9.51189Z" fill="#160242"/>
</svg>
