<svg width="91" height="21" viewBox="0 0 91 21" fill="none" xmlns="http://www.w3.org/2000/svg">
<path d="M18.6297 10.8278C18.6297 4.31189 14.5685 0.702637 9.34966 0.702637C4.11184 0.702637 0.0791016 4.31189 0.0791016 10.8278C0.0791016 17.3148 4.11184 20.9529 9.34966 20.9529C14.5685 20.9529 18.6297 17.3437 18.6297 10.8278ZM13.8284 10.8278C13.8284 14.6873 12.1583 16.7758 9.34966 16.7758C6.55046 16.7758 4.87094 14.6873 4.87094 10.8278C4.87094 6.96829 6.55046 4.87974 9.34966 4.87974C12.1583 4.87974 13.8284 6.96829 13.8284 10.8278Z" fill="#7000FF"/>
<path d="M32.7583 0.602051C32.0513 1.04471 30.8977 1.04471 29.344 1.04471C29.0277 1.04471 28.6928 1.04471 28.3486 1.04471C22.8596 1.06316 19.957 4.27246 19.957 11.2813V12.3142C19.957 17.4417 22.7015 20.5559 27.195 20.5559C31.6791 20.5559 34.3585 17.4417 34.3585 13.1534C34.3585 9.11407 31.9582 6.59643 28.209 6.59643C25.8088 6.59643 24.3482 7.63853 23.5295 9.35385H23.4085C23.7621 5.93244 25.0831 4.68745 28.5067 4.66901C31.5303 4.64134 32.8048 4.48457 33.9863 3.5808L32.7583 0.602051ZM27.195 16.7961C25.5762 16.7961 24.5994 15.4958 24.5994 13.3286C24.6087 11.1429 25.5762 9.90718 27.1857 9.90718C28.7486 9.90718 29.7254 11.1429 29.7254 13.3286C29.7254 15.505 28.7579 16.7961 27.195 16.7961Z" fill="#7000FF"/>
<path d="M44.7314 15.1176L41.3636 5.76637H36.0793V19.9316H40.3867V12.1204L43.2707 19.9316H46.192L49.3365 11.6316V19.9316H53.5881V5.76637H48.2294L44.7314 15.1176Z" fill="#7000FF"/>
<path d="M62.1704 20.199C65.9196 20.199 68.3849 18.4007 68.9059 15.6156L64.7287 15.4957C64.3752 16.4364 63.4449 16.9436 62.2541 16.9436C60.5051 16.9436 59.4259 15.7908 59.4259 14.0571V13.9372H68.9524V12.8121C68.9524 8.14568 66.087 5.58193 62.0308 5.58193C57.7141 5.58193 54.9417 8.51456 54.9417 12.9043C54.9417 17.4416 57.6769 20.199 62.1704 20.199ZM59.4259 11.3181C59.491 9.9071 60.6167 8.83734 62.1238 8.83734C63.6217 8.83734 64.7008 9.87022 64.7194 11.3181H59.4259Z" fill="#7000FF"/>
<path d="M74.941 5.76637H70.6336V19.9316H74.941V14.5274H79.174V19.9316H83.4535V5.76637H79.174V11.0875H74.941V5.76637Z" fill="#7000FF"/>
<path d="M88.1114 20.2783C89.4174 20.2783 90.5708 19.168 90.5898 17.7896C90.5708 16.4304 89.4174 15.3296 88.1114 15.3296C86.7388 15.3296 85.614 16.4304 85.6331 17.7896C85.614 19.168 86.7388 20.2783 88.1114 20.2783Z" fill="#7000FF"/>
</svg>
