<svg width="18" height="17" viewBox="0 0 18 17" fill="none" xmlns="http://www.w3.org/2000/svg">
<path d="M0 8.04452C0 8.41438 0.292808 8.63784 0.654966 8.63784C0.870719 8.63784 1.05565 8.52997 1.20976 8.37586L8.73031 1.52569C8.81507 1.44092 8.90753 1.4101 9 1.4101C9.10017 1.4101 9.18493 1.44092 9.2774 1.52569L16.7902 8.37586C16.9443 8.52997 17.1216 8.63784 17.345 8.63784C17.7072 8.63784 18 8.41438 18 8.04452C18 7.81336 17.9075 7.66695 17.7688 7.53596L15.1027 5.10873V0.554795C15.1027 0.215753 14.8793 0 14.5479 0H13.5385C13.1995 0 12.976 0.215753 12.976 0.554795V3.17466L9.92466 0.385274C9.64726 0.130993 9.32363 0.00770548 9 0.00770548C8.67637 0.00770548 8.35274 0.130993 8.07534 0.385274L0.231164 7.53596C0.0924658 7.66695 0 7.81336 0 8.04452ZM2.20377 14.5094C2.20377 15.5805 2.85103 16.2046 3.9375 16.2046H7.05822V10.726C7.05822 10.3716 7.28938 10.1404 7.64384 10.1404H10.3639C10.726 10.1404 10.9495 10.3716 10.9495 10.726V16.2046H14.0625C15.149 16.2046 15.7962 15.5805 15.7962 14.5094V8.86901L9.24658 2.97432C9.16952 2.89726 9.06935 2.85873 8.98459 2.85873C8.89983 2.85873 8.80736 2.89726 8.7226 2.98202L2.20377 8.90753V14.5094Z" fill="#4E00F2"/>
</svg>
