<svg width="18" height="18" viewBox="0 0 18 18" fill="none" xmlns="http://www.w3.org/2000/svg">
<path d="M9.00906 18C13.9305 18 18 13.9215 18 9C18 4.08761 13.9215 0 9 0C4.07855 0 0 4.08761 0 9C0 13.9215 4.08761 18 9.00906 18ZM6.39879 4.30514C6.93353 2.95468 7.67674 1.98489 8.48338 1.6858V4.5136C7.73112 4.49547 7.0423 4.42296 6.39879 4.30514ZM9.52568 1.6858C10.3233 1.98489 11.0665 2.95468 11.6012 4.30514C10.9668 4.42296 10.2689 4.49547 9.52568 4.5136V1.6858ZM11.429 1.93958C12.3988 2.27492 13.2779 2.79154 14.0211 3.4713C13.6133 3.69789 13.1511 3.88822 12.6344 4.05136C12.3082 3.20846 11.9003 2.49245 11.429 1.93958ZM3.97885 3.4713C4.72205 2.8006 5.60121 2.27492 6.571 1.93958C6.10876 2.49245 5.69184 3.20846 5.36556 4.05136C4.84894 3.88822 4.38671 3.69789 3.97885 3.4713ZM13.4955 8.47432C13.4502 7.2145 13.2689 6.04532 12.9607 5.01208C13.6405 4.80363 14.2477 4.54079 14.7462 4.23263C15.716 5.39275 16.3323 6.86103 16.4411 8.47432H13.4955ZM1.56798 8.47432C1.67674 6.86103 2.29305 5.39275 3.25378 4.23263C3.76133 4.54079 4.35952 4.80363 5.03927 5.01208C4.74018 6.04532 4.54985 7.2145 4.50453 8.47432H1.56798ZM9.52568 8.47432V5.55589C10.3686 5.5287 11.1752 5.429 11.9275 5.27492C12.2085 6.24471 12.3807 7.33233 12.426 8.47432H9.52568ZM5.57402 8.47432C5.61934 7.33233 5.8006 6.24471 6.07251 5.27492C6.82477 5.429 7.63142 5.5287 8.48338 5.55589V8.47432H5.57402ZM1.55891 9.51662H4.50453C4.54079 10.7946 4.73112 11.9909 5.03927 13.0332C4.36858 13.2417 3.77946 13.4955 3.28097 13.8036C2.30211 12.6254 1.67674 11.148 1.55891 9.51662ZM5.57402 9.51662H8.48338V12.4894C7.63142 12.5166 6.82477 12.6073 6.07251 12.7704C5.79154 11.7915 5.61027 10.6767 5.57402 9.51662ZM9.52568 12.4894V9.51662H12.426C12.3897 10.6767 12.2085 11.7915 11.9275 12.7704C11.1752 12.6073 10.3686 12.5166 9.52568 12.4894ZM12.9607 13.0332C13.2689 11.9909 13.4592 10.7946 13.4955 9.51662H16.4502C16.3414 11.148 15.716 12.6344 14.7372 13.8036C14.2296 13.5045 13.6314 13.2417 12.9607 13.0332ZM6.39879 13.7402C7.0423 13.6224 7.73112 13.5498 8.48338 13.5317V16.3595C7.67674 16.0604 6.93353 15.0906 6.39879 13.7402ZM9.52568 13.5317C10.2689 13.5498 10.9668 13.6224 11.6012 13.7402C11.0665 15.0906 10.3233 16.0604 9.52568 16.3595V13.5317ZM4.01511 14.5559C4.4139 14.3384 4.85801 14.148 5.36556 13.994C5.68278 14.8097 6.08157 15.4985 6.52568 16.0514C5.58308 15.7251 4.73112 15.2085 4.01511 14.5559ZM12.6344 13.994C13.142 14.148 13.5952 14.3384 14.003 14.565C13.2689 15.2175 12.4169 15.7341 11.4653 16.0604C11.9184 15.5076 12.3172 14.8097 12.6344 13.994Z" fill="#4E00F2"/>
</svg>
