<svg width="18" height="15" viewBox="0 0 18 15" fill="none" xmlns="http://www.w3.org/2000/svg">
<path d="M9.0163 7.96467C9.35054 7.96467 9.66033 7.80978 10.019 7.45109L17.1114 0.432065C16.8098 0.138587 16.2473 0 15.4402 0H2.31522C1.63043 0 1.14946 0.130435 0.880435 0.399456L8.01359 7.45109C8.36413 7.80163 8.67391 7.96467 9.0163 7.96467ZM0.203804 12.7337L5.96739 7.03533L0.1875 1.33696C0.0652174 1.56522 0 1.95652 0 2.51902V11.519C0 12.0978 0.0652174 12.5054 0.203804 12.7337ZM17.8043 12.7255C17.9348 12.4891 18 12.0897 18 11.519V2.51902C18 1.97283 17.9348 1.58152 17.8207 1.36141L12.0571 7.03533L17.8043 12.7255ZM2.55978 14.0462H15.6848C16.3696 14.0462 16.8424 13.9158 17.1114 13.6549L11.2337 7.83424L10.6957 8.38043C10.1332 8.91848 9.60326 9.16304 9.0163 9.16304C8.4212 9.16304 7.8913 8.91848 7.33696 8.38043L6.79076 7.83424L0.929348 13.6467C1.23913 13.9158 1.77717 14.0462 2.55978 14.0462Z" fill="#4E00F2"/>
</svg>
