<svg width="16" height="17" viewBox="0 0 16 17" fill="none" xmlns="http://www.w3.org/2000/svg">
<path d="M4.38403 11.6073C6.8781 14.1014 9.90723 16.0259 12.384 16.0259C13.4973 16.0259 14.4725 15.6375 15.2578 14.7745C15.7152 14.2654 16 13.6699 16 13.0831C16 12.6516 15.836 12.2373 15.4304 11.9439L12.781 10.0626C12.3754 9.78641 12.0388 9.64833 11.7282 9.64833C11.3398 9.64833 10.986 9.87271 10.589 10.2611L9.97627 10.8652C9.88134 10.9601 9.76052 11.0032 9.64833 11.0032C9.51888 11.0032 9.38943 10.9515 9.30313 10.9083C8.76807 10.6235 7.85329 9.83819 6.99892 8.99245C6.15318 8.14671 5.36785 7.23193 5.09169 6.69687C5.04854 6.60194 4.99676 6.48112 4.99676 6.35167C4.99676 6.23948 5.03128 6.12729 5.12621 6.03236L5.73894 5.40237C6.11866 5.00539 6.35167 4.66019 6.35167 4.26321C6.35167 3.95253 6.20496 3.61597 5.92017 3.21036L4.06472 0.595469C3.76268 0.18123 3.33981 0 2.87379 0C2.30421 0 1.71737 0.2589 1.2082 0.750809C0.37109 1.5534 0 2.54585 0 3.64186C0 6.11866 1.88997 9.1219 4.38403 11.6073Z" fill="#4E00F2"/>
</svg>
