<svg width="24" height="24" viewBox="0 0 24 24" fill="none" xmlns="http://www.w3.org/2000/svg">
<path d="M4.77431 14.6585L3.05859 19.6738C2.78975 20.4597 3.54066 21.2117 4.32695 20.9441L9.3489 19.235C9.78357 19.087 10.1785 18.8413 10.5032 18.5167L11.0096 18.0105L5.99961 13.0002L5.49191 13.5078C5.16801 13.8315 4.92254 14.2251 4.77431 14.6585Z" fill="#b5b1bf"/>
<path d="M14 5L6 13L11.01 18.0102L19.01 10.0102L14 5Z" fill="#b5b1bf" fill-opacity="0.4"/>
<path d="M15.1186 3.8812L14 4.9999L19.01 10.0101L20.1289 8.89118C21.3004 7.71961 21.3003 5.82021 20.1288 4.64866L19.3614 3.88117C18.1898 2.70952 16.2902 2.70953 15.1186 3.8812Z" fill="#b5b1bf"/>
</svg>
